<svg id="icons" xmlns="http://www.w3.org/2000/svg" viewBox="0 0 340 340"><rect x="139.97" y="255.974" width="52.173" height="40.828" style="fill:#ef7c2e"/><rect x="124.777" y="217.967" width="91.976" height="26.951" style="fill:#ef7c2e"/><rect x="124.777" y="191.016" width="91.976" height="26.951" style="fill:#fca742"/><rect x="124.777" y="164.065" width="91.976" height="26.951" style="fill:#fca742"/><rect x="124.777" y="137.114" width="91.976" height="26.951" style="fill:#fca742"/><path d="M133.2,110.162h75.125a8.426,8.426,0,0,1,8.426,8.426v18.526a0,0,0,0,1,0,0H124.777a0,0,0,0,1,0,0V118.588A8.426,8.426,0,0,1,133.2,110.162Z" style="fill:#fca742"/><path d="M208.328,110.162H133.2a8.427,8.427,0,0,0-8.426,8.426v45.477h91.977V118.588A8.427,8.427,0,0,0,208.328,110.162Z" style="fill:#fca742"/><path d="M160.38,191.016V172.491a17.446,17.446,0,0,0-17.426-17.426H124.777v89.854h35.6v-53.9Z" style="fill:#ef7c2e"/><path d="M59.4,271.87H151.38a0,0,0,0,1,0,0v26.951a0,0,0,0,1,0,0H76.787A17.384,17.384,0,0,1,59.4,281.437V271.87a0,0,0,0,1,0,0Z" style="fill:#fca742"/><rect x="59.403" y="244.919" width="91.976" height="26.951" style="fill:#ffdc6c"/><rect x="59.403" y="217.967" width="91.976" height="26.951" style="fill:#ffdc6c"/><rect x="59.403" y="191.016" width="91.976" height="26.951" style="fill:#ffdc6c"/><path d="M67.829,164.065h75.125a8.426,8.426,0,0,1,8.426,8.426v18.526a0,0,0,0,1,0,0H59.4a0,0,0,0,1,0,0V172.491A8.426,8.426,0,0,1,67.829,164.065Z" style="fill:#ffdc6c"/><rect x="59.403" y="266.581" width="91.976" height="10.578" style="fill:#fca742"/><path d="M125.1,257.446a22.267,22.267,0,0,0,5.307,14.424H151.38V244.919H128.942A22.265,22.265,0,0,0,125.1,257.446Z" style="fill:#fca742"/><path d="M264.04,235.383h-8.847a18.723,18.723,0,0,1-8.706-2.115c-5.127-2.692-15.183-7-27.052-7,0,0-21.79-2.181-40.572,10.229a40.34,40.34,0,0,1-22.258,6.559H147.49A14.389,14.389,0,0,0,133.1,257.446h0a14.389,14.389,0,0,0,14.389,14.389h26.859a76.133,76.133,0,0,1-12.663,9.66,59.347,59.347,0,0,1-44.355,7.193c-10.935-2.486-26.8-6.519-40.639-11.683a19.138,19.138,0,0,0-22.855,7.818h0a7.935,7.935,0,0,0,2.672,11.062,231.369,231.369,0,0,0,77.6,28.176,88,88,0,0,0,21.03,1.011c15.908-1.113,46.534-4.8,74.806-17.031a42.913,42.913,0,0,1,17.029-3.591H264.04Z" style="fill:#ffd6bb"/><path d="M37.471,49.374l6.44,17.783A27.647,27.647,0,0,0,56.194,81.749l8.514,4.861-8.514,4.862a27.641,27.641,0,0,0-12.283,14.591l-6.44,17.784-6.312-17.432A27.635,27.635,0,0,0,18.3,91.505L9.235,86.61,18.3,81.715a27.635,27.635,0,0,0,12.858-14.91Z" style="fill:#ffdc6c"/><path d="M297.781,133.559,302.649,147a20.9,20.9,0,0,0,9.284,11.029l6.436,3.674-6.436,3.675a20.9,20.9,0,0,0-9.284,11.029l-4.868,13.443-4.771-13.176a20.9,20.9,0,0,0-9.719-11.271l-6.853-3.7,6.853-3.7a20.9,20.9,0,0,0,9.719-11.271Z" style="fill:#fca742"/><path d="M208.328,110.162H180c9.172,18.724,23.968,30.215,36.75,37.083V118.588A8.427,8.427,0,0,0,208.328,110.162Z" style="fill:#ef7c2e"/><rect x="264.04" y="223.392" width="66.725" height="102.162" style="fill:#728dc1"/><path d="M241.508,14.438c-16.857,16.005-55.73,8.737-55.73,8.737V79.886a53.315,53.315,0,0,0,3.607,19.629c14,35.388,52.123,42.479,52.123,42.479s38.121-7.091,52.123-42.479a53.315,53.315,0,0,0,3.607-19.629V23.175S258.366,30.443,241.508,14.438Z" style="fill:#ffdc6c"/><path d="M241.508,14.438a31.005,31.005,0,0,1-9.3,5.92L185.778,66.792V79.886a54.76,54.76,0,0,0,2.045,15.01L259.617,23.1C252.742,21.6,246.253,18.943,241.508,14.438Z" style="fill:#ffedd2"/><path d="M194.338,109.443a64.579,64.579,0,0,0,6.851,9.232l90.68-90.368V23.949c-3,.356-7.052.722-11.633.836Z" style="fill:#ffedd2"/><path d="M293.631,99.515a53.315,53.315,0,0,0,3.607-19.629V23.175s-38.872,7.268-55.73-8.737V141.994S279.629,134.9,293.631,99.515Z" style="fill:#fca742"/><path d="M185.778,53.571l29.179-29.178c-2.3.221-4.582.346-6.8.4L185.778,47.172Z" style="fill:#ffedd2"/><path d="M192.164,141.114a4,4,0,0,0,0-8H128.777V118.588a4.431,4.431,0,0,1,4.426-4.426H172.3a4,4,0,0,0,0-8H133.2a12.44,12.44,0,0,0-12.426,12.426v41.477H67.829A12.441,12.441,0,0,0,55.4,172.49v87.893a4,4,0,0,0,8,0V248.919h54.621a4,4,0,0,0,0-8H63.4V221.968H147.38v6.475a4,4,0,0,0,8,0V172.49a12.44,12.44,0,0,0-12.426-12.425H128.777V141.114ZM147.38,172.49v41.478H63.4V195.016H134.6a4,4,0,0,0,0-8H63.4V172.49a4.431,4.431,0,0,1,4.426-4.425h75.125A4.431,4.431,0,0,1,147.38,172.49Z" style="fill:#494456"/><path d="M334.766,223.391a4,4,0,0,0-4-4H264.04a4,4,0,0,0-4,4v7.992h-4.847a14.769,14.769,0,0,1-6.846-1.658,64.741,64.741,0,0,0-27.593-7.426v-69.45a4,4,0,0,0-8,0v7.216H167.766a4,4,0,0,0,0,8h44.988v18.951H167.766a4,4,0,0,0,0,8h44.988v18.952H167.766a4,4,0,0,0,0,8h44.988v.2c-8.382.3-22.852,2.247-36.1,11a36.218,36.218,0,0,1-20.052,5.9H147.49a18.389,18.389,0,1,0,0,36.778h15.54c-1.066.738-2.217,1.5-3.448,2.258a54.989,54.989,0,0,1-41.364,6.694c-10.766-2.447-26.466-6.434-40.129-11.53a23.216,23.216,0,0,0-27.64,9.439,11.932,11.932,0,0,0,4.011,16.623A234.412,234.412,0,0,0,133.429,328,90.889,90.889,0,0,0,148.78,329.3q3.3,0,6.633-.233c16.041-1.122,47.259-4.869,76.114-17.349a38.74,38.74,0,0,1,15.443-3.264h13.07v17.1a4,4,0,0,0,4,4h66.726a4,4,0,0,0,0-8H268.04V227.391h62.726A4,4,0,0,0,334.766,223.391Zm-87.8,77.058a46.659,46.659,0,0,0-18.618,3.922c-27.764,12.008-57.966,15.624-73.5,16.711a84.113,84.113,0,0,1-20.073-.963A226.179,226.179,0,0,1,58.56,292.45a3.934,3.934,0,0,1-1.335-5.5,15.255,15.255,0,0,1,12.887-7.131,14.8,14.8,0,0,1,5.181.934c14.077,5.251,30.148,9.334,41.151,11.835a62.936,62.936,0,0,0,47.344-7.691,84.631,84.631,0,0,0,12.144-9.062h22.447a4,4,0,0,0,0-8H147.49a10.389,10.389,0,1,1,0-20.778H156.6a44.2,44.2,0,0,0,24.462-7.221c17.309-11.436,37.77-9.606,37.969-9.586.133.013.266.019.4.019,11.081,0,20.541,4.1,25.193,6.539a22.782,22.782,0,0,0,10.565,2.575h4.847v61.066Z" style="fill:#494456"/><path d="M37.472,127.847a4,4,0,0,0,3.76-2.638l6.44-17.784a23.664,23.664,0,0,1,10.506-12.48l8.513-4.861a4,4,0,0,0,0-6.947l-8.513-4.862A23.668,23.668,0,0,1,47.672,65.8l-6.44-17.783a4,4,0,0,0-7.521,0L27.4,65.442A23.614,23.614,0,0,1,16.4,78.2L7.334,83.091a4,4,0,0,0,0,7.039L16.4,95.024a23.611,23.611,0,0,1,11,12.753l6.313,17.432A4,4,0,0,0,37.472,127.847ZM20.2,87.985,17.655,86.61,20.2,85.235A31.606,31.606,0,0,0,34.92,68.167l2.552-7.045,2.678,7.4a31.676,31.676,0,0,0,14.061,16.7l2.431,1.387L54.211,88A31.669,31.669,0,0,0,40.15,104.7l-2.678,7.4-2.552-7.046A31.606,31.606,0,0,0,20.2,87.985Z" style="fill:#494456"/><path d="M297.781,129.559a4,4,0,0,0-3.76,2.638l-4.772,13.176a16.871,16.871,0,0,1-7.858,9.113l-6.854,3.7a4,4,0,0,0,0,7.039l6.854,3.7a16.871,16.871,0,0,1,7.858,9.113l4.772,13.176a4,4,0,0,0,7.521,0l4.867-13.442a16.921,16.921,0,0,1,7.508-8.918l6.435-3.673a4,4,0,0,0,0-6.948l-6.435-3.675a16.917,16.917,0,0,1-7.508-8.916L301.542,132.2A4,4,0,0,0,297.781,129.559Zm12.169,31.946.352.2-.352.2a24.925,24.925,0,0,0-11.062,13.142l-1.107,3.055-1.01-2.79a24.864,24.864,0,0,0-11.58-13.427l-.333-.18.333-.181a24.868,24.868,0,0,0,11.58-13.427l1.01-2.791,1.107,3.057A24.926,24.926,0,0,0,309.95,161.505Z" style="fill:#494456"/><path d="M296.5,19.243c-.37.068-37.04,6.725-52.241-7.706-.074-.07-.159-.12-.237-.183a4.053,4.053,0,0,0-.323-.251,3.862,3.862,0,0,0-.344-.192c-.115-.061-.228-.123-.347-.172s-.25-.085-.376-.122-.24-.073-.363-.1a3.872,3.872,0,0,0-.386-.047c-.126-.012-.251-.027-.378-.027s-.251.015-.378.027a3.892,3.892,0,0,0-.387.047c-.122.024-.24.061-.361.1a3.7,3.7,0,0,0-.378.123c-.118.048-.23.11-.344.17a3.693,3.693,0,0,0-.347.194,3.78,3.78,0,0,0-.321.249c-.078.064-.164.113-.238.184-15.169,14.4-51.872,7.773-52.242,7.705a4,4,0,0,0-4.734,3.933V79.886a57.085,57.085,0,0,0,3.888,21.1c14.647,37.02,53.465,44.635,55.11,44.941h.007a3.913,3.913,0,0,0,.72.068h.009a3.968,3.968,0,0,0,.717-.067h.01c1.646-.306,40.464-7.921,55.112-44.941a57.087,57.087,0,0,0,3.887-21.1V23.175a4,4,0,0,0-4.735-3.932Zm-3.265,60.643a49.124,49.124,0,0,1-3.327,18.157c-11.967,30.247-43.266,38.665-48.4,39.857-5.137-1.192-36.435-9.61-48.4-39.857a49.108,49.108,0,0,1-3.327-18.157V27.822c10.642,1.355,36.509,3.182,51.73-8.174,15.221,11.356,41.089,9.53,51.73,8.174Z" style="fill:#494456"/><circle cx="287.141" cy="244.917" r="4" style="fill:#494456"/><circle cx="306.596" cy="244.917" r="4" style="fill:#494456"/></svg>