<svg id="icons" xmlns="http://www.w3.org/2000/svg" viewBox="0 0 340 340"><polygon points="77.679 7.717 243.362 7.717 283.795 48.009 283.795 326.79 77.679 326.79 77.679 7.717" style="fill:#ededf2"/><path d="M243.362,7.717V39.069a8.94,8.94,0,0,0,8.939,8.94H283.8Z" style="fill:#a0a0ba"/><path d="M321.875,327.717H308.542a7.333,7.333,0,0,1-7.334-7.333V161.177a19.126,19.126,0,0,1,2.26-9.02l8.074-15.106,8.073,15.106a19.126,19.126,0,0,1,2.26,9.02Z" style="fill:#b6dffc"/><path d="M144.789,262.514v-77.9a1.429,1.429,0,0,0-1.86-1.357c-33.366,10.308-59.452,1.073-65.25-1.3V326.791h34.395c15.694-10.466,24.088-26.723,28.426-38.926A75.661,75.661,0,0,0,144.789,262.514Z" style="fill:#c9c9d6"/><path d="M5.459,199.624V262.94a59.515,59.515,0,0,0,4.027,21.915c15.633,39.51,58.193,47.427,58.193,47.427V189.869C48.858,207.738,5.459,199.624,5.459,199.624Z" style="fill:#ffdc6c"/><path d="M67.679,189.869A34.591,34.591,0,0,1,57.3,196.478L5.459,248.321V262.94A61.114,61.114,0,0,0,7.741,279.7L87.9,199.542C80.221,197.869,72.977,194.9,67.679,189.869Z" style="fill:#ffedd2"/><path d="M15.015,295.939a72.02,72.02,0,0,0,7.649,10.307L123.906,205.353v-4.864c-3.349.4-7.874.805-12.988.932Z" style="fill:#ffedd2"/><path d="M125.873,284.855A59.536,59.536,0,0,0,129.9,262.94V199.624s-43.4,8.114-62.221-9.755V332.282S110.24,324.365,125.873,284.855Z" style="fill:#fca742"/><path d="M5.459,233.561l32.576-32.577c-2.568.247-5.115.386-7.589.444L5.459,226.415Z" style="fill:#ffedd2"/><path d="M118.792,326.791a4,4,0,0,0,4,4h161a4,4,0,0,0,4-4V63.153a4,4,0,0,0-8,0V322.791h-157A4,4,0,0,0,118.792,326.791Z" style="fill:#494456"/><path d="M287.493,49.536a4,4,0,0,0-.874-4.361L252.673,11.349A25.994,25.994,0,0,0,234.2,3.717H77.679a4,4,0,0,0-4,4V163.793a4,4,0,0,0,8,0V11.717H234.2a18.05,18.05,0,0,1,12.822,5.3l27.089,26.993H252.3a4.945,4.945,0,0,1-4.939-4.939V27.863a4,4,0,0,0-8,0V39.069A12.954,12.954,0,0,0,252.3,52.008H283.8A4,4,0,0,0,287.493,49.536Z" style="fill:#494456"/><path d="M334.542,275.384a4,4,0,0,0-4,4v38.833a5.5,5.5,0,0,1-4.667,5.43V161.177a23.213,23.213,0,0,0-2.732-10.906l-8.074-15.106a4,4,0,0,0-7.055,0l-8.074,15.106a23.213,23.213,0,0,0-2.732,10.906V320.384a11.346,11.346,0,0,0,11.334,11.333h16.5a13.515,13.515,0,0,0,13.5-13.5V279.384A4,4,0,0,0,334.542,275.384Zm-29.334,45V161.177A15.2,15.2,0,0,1,307,154.042l4.547-8.506,4.546,8.506a15.2,15.2,0,0,1,1.787,7.135v162.54h-9.333A3.337,3.337,0,0,1,305.208,320.384Z" style="fill:#494456"/><path d="M132.906,73.094h95.663a4,4,0,1,0,0-8H132.906a4,4,0,0,0,0,8Z" style="fill:#494456"/><path d="M251.781,103.359H132.906a4,4,0,0,0,0,8H251.781a4,4,0,0,0,0-8Z" style="fill:#494456"/><path d="M251.781,126.462H109.693a4,4,0,1,0,0,8H251.781a4,4,0,1,0,0-8Z" style="fill:#494456"/><path d="M109.693,157.566H251.781a4,4,0,0,0,0-8H109.693a4,4,0,0,0,0,8Z" style="fill:#494456"/><path d="M255.781,176.669a4,4,0,0,0-4-4H180.737a4,4,0,0,0,0,8h71.044A4,4,0,0,0,255.781,176.669Z" style="fill:#494456"/><path d="M248.532,244.868h-43.68a4,4,0,0,0,0,8h43.68a4,4,0,0,0,0-8Z" style="fill:#494456"/><path d="M167.67,277.416h80.862a4,4,0,0,0,0-8H167.67a4,4,0,0,0,0,8Z" style="fill:#494456"/><path d="M66.948,336.214h.007a3.993,3.993,0,0,0,.72.068h.009a3.991,3.991,0,0,0,.719-.068h.008c1.826-.339,44.922-8.794,61.181-49.887A63.261,63.261,0,0,0,133.9,262.94V199.625a4,4,0,0,0-4.733-3.933c-.415.077-41.625,7.518-58.734-8.724-.073-.069-.156-.118-.233-.18a3.726,3.726,0,0,0-.327-.254c-.11-.073-.225-.13-.34-.191s-.231-.125-.352-.174a3.772,3.772,0,0,0-.369-.119,3.641,3.641,0,0,0-.372-.1c-.123-.024-.247-.034-.372-.046s-.262-.027-.394-.027-.238.014-.357.025a3.725,3.725,0,0,0-.408.05c-.115.022-.226.058-.339.091a4.049,4.049,0,0,0-.4.129c-.112.046-.219.106-.328.163a3.744,3.744,0,0,0-.36.2c-.111.074-.213.162-.318.247-.079.064-.164.114-.239.185-17.11,16.242-58.319,8.8-58.733,8.724a4,4,0,0,0-4.734,3.933V262.94a63.262,63.262,0,0,0,4.309,23.387C22.026,327.42,65.121,335.875,66.948,336.214ZM9.458,204.284C21,205.8,50.61,208.106,67.679,195.093c17.07,13.014,46.683,10.708,58.221,9.191V262.94a55.312,55.312,0,0,1-3.746,20.443c-13.514,34.152-48.948,43.537-54.48,44.808-5.541-1.26-40.916-10.555-54.469-44.808A55.308,55.308,0,0,1,9.458,262.94Z" style="fill:#494456"/></svg>