<svg xmlns="http://www.w3.org/2000/svg" viewBox="0 0 64 64"><defs><style>.cls-1{fill:#bce2ff;}.cls-2{fill:#74af5b;}.cls-3{fill:#baf2ac;}.cls-4{fill:#90c97e;}.cls-5{fill:#f79341;}.cls-6{fill:#ffb248;}.cls-7{fill:#2b2b4c;}</style></defs><title>money Insurance</title><g id="money_Insurance" data-name="money Insurance"><path class="cls-1" d="M54,27v8l-5-1.42L47,33l-.81.23-.31.09L44,33.85l-6,1.71v8.58A11.48,11.48,0,0,0,38.15,46a11.86,11.86,0,0,0,2,5H12a4,4,0,0,1-4-3.51A3.91,3.91,0,0,1,8,47V27a4,4,0,0,1,3.38-3.95A4.21,4.21,0,0,1,12,23H50a4,4,0,0,1,2.82,1.16h0a4.07,4.07,0,0,1,1,1.79A4,4,0,0,1,54,27Z"/><path class="cls-1" d="M49,32v1.57L47,33l-.81.23-.31.09L44,33.85l-6,1.71v8.58A11.48,11.48,0,0,0,38.15,46H17a4,4,0,0,0-4-4V32a4,4,0,0,0,4-4H45A4,4,0,0,0,49,32Z"/><circle class="cls-1" cx="31" cy="37" r="6"/><path class="cls-2" d="M54,27v8l-5-1.42L47,33l-.81.23-.31.09L44,33.85l-6,1.71v8.58A11.48,11.48,0,0,0,38.15,46a11.86,11.86,0,0,0,2,5H12a4,4,0,0,1-4-3.51A3.91,3.91,0,0,1,8,47V27a4,4,0,0,1,3.38-3.95A4.21,4.21,0,0,1,12,23H50a4,4,0,0,1,2.82,1.16h0a4.07,4.07,0,0,1,1,1.79A4,4,0,0,1,54,27Z"/><path class="cls-3" d="M49,32v1.57L47,33l-.81.23-.31.09L44,33.85l-6,1.71v8.58A11.48,11.48,0,0,0,38.15,46H17a4,4,0,0,0-4-4V32a4,4,0,0,0,4-4H45A4,4,0,0,0,49,32Z"/><circle class="cls-4" cx="31" cy="37" r="6"/><path class="cls-2" d="M52.65,24.16A4,4,0,0,0,49.83,23H46.21l-2.32-4-1-1.76a4,4,0,0,1-5.46-1.47L35.21,17,24.85,23h-10l.24-.14L32.15,13l5-2.88,2.09-1.21a4,4,0,0,1,5.46,1.47Z"/><path class="cls-3" d="M46.21,23H24.85l12.56-7.25a4,4,0,0,0,5.46,1.47Z"/><path class="cls-5" d="M56,35.56v8.58A12.34,12.34,0,0,1,47,56a12.43,12.43,0,0,1-4.34-2.23,10.26,10.26,0,0,1-.79-.69,11.56,11.56,0,0,1-1.53-1.75,3.15,3.15,0,0,1-.22-.33,11.86,11.86,0,0,1-2-5A11.48,11.48,0,0,1,38,44.14V35.56l6-1.71,1.88-.53.31-.09L47,33l2,.57L54,35Z"/><path class="cls-6" d="M53,34.71v6.43A12.34,12.34,0,0,1,44,53a12.39,12.39,0,0,1-3.77-1.8A12.31,12.31,0,0,1,38,44.14V35.56L47,33Z"/><path class="cls-7" d="M40.12,52H12a5,5,0,0,1-5-4.39A4,4,0,0,1,7,47V44a1,1,0,0,1,2,0v3c0,.13,0,.24,0,.36A3,3,0,0,0,12,50H38.37a12.9,12.9,0,0,1-1.21-3.85,12.12,12.12,0,0,1-.16-2V35.56a1,1,0,0,1,.73-1l9-2.56a1,1,0,0,1,.54,0L53,33.67V27a3.47,3.47,0,0,0-.1-.78,3.24,3.24,0,0,0-.78-1.35A3,3,0,0,0,50,24H12a3.57,3.57,0,0,0-.47,0A3,3,0,0,0,9,27V40a1,1,0,0,1-2,0V27a5,5,0,0,1,4.23-4.94A4.9,4.9,0,0,1,12,22H50a5,5,0,0,1,3.52,1.44,5.21,5.21,0,0,1,1.31,2.26A5.15,5.15,0,0,1,55,27v8a1,1,0,0,1-.4.8,1,1,0,0,1-.87.16L47,34l-8,2.27v7.83a11.45,11.45,0,0,0,1.94,6.29,1,1,0,0,1,.07,1A1,1,0,0,1,40.12,52Z"/><path class="cls-7" d="M38.15,47H17a1,1,0,0,1-1-1,3,3,0,0,0-3-3,1,1,0,0,1-1-1V32a1,1,0,0,1,1-1,3,3,0,0,0,3-3,1,1,0,0,1,1-1H36a1,1,0,0,1,0,2H17.9A5,5,0,0,1,14,32.9v8.2A5,5,0,0,1,17.9,45H37c0-.29,0-.57,0-.86V35.56a1,1,0,0,1,.73-1l8.52-2.43A5,5,0,0,1,44.1,29H40a1,1,0,0,1,0-2h5a1,1,0,0,1,1,1,3,3,0,0,0,3,3,1,1,0,0,1,1,1v1.57a1,1,0,0,1-.4.8,1,1,0,0,1-.87.16L47,34l-8,2.27v7.83a10.64,10.64,0,0,0,.14,1.7,1,1,0,0,1-.23.81A1,1,0,0,1,38.15,47Z"/><path class="cls-7" d="M31,44a7,7,0,0,1-7-7,6.83,6.83,0,0,1,.69-3,1,1,0,0,1,1.8.88A4.78,4.78,0,0,0,26,37a5,5,0,1,0,5-5,4.78,4.78,0,0,0-2.15.49,1,1,0,0,1-.88-1.8A6.83,6.83,0,0,1,31,30a7,7,0,0,1,0,14Z"/><path class="cls-7" d="M40.12,52H12a5,5,0,0,1-5-4.39A4,4,0,0,1,7,47V44a1,1,0,0,1,2,0v3c0,.13,0,.24,0,.36A3,3,0,0,0,12,50H38.37a12.9,12.9,0,0,1-1.21-3.85,12.12,12.12,0,0,1-.16-2V35.56a1,1,0,0,1,.73-1l9-2.56a1,1,0,0,1,.54,0L53,33.67V27a3.47,3.47,0,0,0-.1-.78,3.24,3.24,0,0,0-.78-1.35A3,3,0,0,0,50,24H12a3.57,3.57,0,0,0-.47,0A3,3,0,0,0,9,27V40a1,1,0,0,1-2,0V27a5,5,0,0,1,4.23-4.94A4.9,4.9,0,0,1,12,22H50a5,5,0,0,1,3.52,1.44,5.21,5.21,0,0,1,1.31,2.26A5.15,5.15,0,0,1,55,27v8a1,1,0,0,1-.4.8,1,1,0,0,1-.87.16L47,34l-8,2.27v7.83a11.45,11.45,0,0,0,1.94,6.29,1,1,0,0,1,.07,1A1,1,0,0,1,40.12,52Z"/><path class="cls-7" d="M38.15,47H17a1,1,0,0,1-1-1,3,3,0,0,0-3-3,1,1,0,0,1-1-1V32a1,1,0,0,1,1-1,3,3,0,0,0,3-3,1,1,0,0,1,1-1H36a1,1,0,0,1,0,2H17.9A5,5,0,0,1,14,32.9v8.2A5,5,0,0,1,17.9,45H37c0-.29,0-.57,0-.86V35.56a1,1,0,0,1,.73-1l8.52-2.43A5,5,0,0,1,44.1,29H40a1,1,0,0,1,0-2h5a1,1,0,0,1,1,1,3,3,0,0,0,3,3,1,1,0,0,1,1,1v1.57a1,1,0,0,1-.4.8,1,1,0,0,1-.87.16L47,34l-8,2.27v7.83a10.64,10.64,0,0,0,.14,1.7,1,1,0,0,1-.23.81A1,1,0,0,1,38.15,47Z"/><path class="cls-7" d="M31,44a7,7,0,0,1-7-7,6.83,6.83,0,0,1,.69-3,1,1,0,0,1,1.8.88A4.78,4.78,0,0,0,26,37a5,5,0,1,0,5-5,4.78,4.78,0,0,0-2.15.49,1,1,0,0,1-.88-1.8A6.83,6.83,0,0,1,31,30a7,7,0,0,1,0,14Z"/><path class="cls-7" d="M52.65,25.16a1.05,1.05,0,0,1-.7-.28A3,3,0,0,0,49.83,24H46.21a1,1,0,0,1-.87-.5l-2.88-5a5,5,0,0,1-2.88.08,5,5,0,0,1-2.45-1.51l-11.78,6.8a1.06,1.06,0,0,1-.5.13h-10a1,1,0,0,1-.5-1.86l13.54-7.83a1,1,0,1,1,1,1.74L18.58,22h6l12.33-7.12a1.05,1.05,0,0,1,.76-.1,1,1,0,0,1,.61.47,3,3,0,0,0,1.82,1.4,3,3,0,0,0,2.27-.3,1,1,0,0,1,1.37.37l3,5.28h3l.43,0L43.83,10.89a3,3,0,0,0-4.09-1.1l-7.4,4.27a1,1,0,1,1-1-1.72l.32-.19,7.1-4.1a5,5,0,0,1,6.83,1.84l8,13.77A1,1,0,0,1,53.26,25,1,1,0,0,1,52.65,25.16Z"/><path class="cls-7" d="M46.21,24H24.85a1,1,0,0,1-1-.74,1,1,0,0,1,.47-1.13l12.56-7.25a1.05,1.05,0,0,1,.76-.1,1,1,0,0,1,.61.47,3,3,0,0,0,1.82,1.4,3,3,0,0,0,2.27-.3,1,1,0,0,1,1.37.37l3.34,5.78a1,1,0,0,1,0,1A1,1,0,0,1,46.21,24ZM28.58,22h15.9l-2-3.5a4.92,4.92,0,0,1-2.87.08,5,5,0,0,1-2.45-1.51Z"/><path class="cls-7" d="M47,57a.84.84,0,0,1-.27,0A13.17,13.17,0,0,1,42,54.55c-.31-.25-.6-.49-.88-.76a13.11,13.11,0,0,1-1.63-1.88,2.86,2.86,0,0,1-.26-.38,12.81,12.81,0,0,1-2.11-5.38,12.12,12.12,0,0,1-.16-2V35.56a1,1,0,0,1,.73-1l9-2.56a1,1,0,0,1,.54,0l9,2.56a1,1,0,0,1,.73,1v8.58a12.85,12.85,0,0,1-.85,4.64,1,1,0,0,1-1.86-.72A11,11,0,0,0,55,44.14V36.31L47,34l-8,2.27v7.83a11.45,11.45,0,0,0,1.94,6.29l.06.1.14.2a11.23,11.23,0,0,0,1.41,1.62c.25.25.5.44.74.64A11.25,11.25,0,0,0,47,55a11.26,11.26,0,0,0,5.49-3.72,1,1,0,1,1,1.56,1.25A13.19,13.19,0,0,1,47.27,57,.84.84,0,0,1,47,57Z"/><path class="cls-7" d="M46,48a1,1,0,0,1-.71-.29l-2.5-2.5a1,1,0,0,1,1.42-1.42L46,45.59l4.29-4.3a1,1,0,0,1,1.42,1.42l-5,5A1,1,0,0,1,46,48Z"/></g></svg>